# This file uses meters as units for non-parametric coordinates.

mtllib murillo.mtl
g murillo1:default1
v -77.618298 -50.417519 -75.617164
v -78.347606 -50.417519 -28.950380
v -77.618298 -5.733405 -75.617164
v -78.347606 -5.733405 -28.950380
v -75.759032 -5.733405 -75.599517
v -76.488339 -5.733405 -28.932735
v -75.759032 -50.417519 -75.599517
v -76.488339 -50.417519 -28.932735
v -78.396792 -10.703547 -28.901031
v -78.958239 -10.703547 -2.582604
v -78.396792 -5.691928 -28.901031
v -78.958239 -5.691928 -2.582604
v -75.803901 -5.691928 -28.883008
v -76.365350 -5.691928 -2.564582
v -75.803901 -10.703547 -28.883008
v -76.365350 -10.703547 -2.564582
v -78.389884 -50.164705 -3.448570
v -79.505021 -50.164705 41.200959
v -78.389884 -5.480590 -3.448570
v -79.505021 -5.480590 41.200959
v -76.531060 -5.480578 -3.402146
v -77.646197 -5.480578 41.247384
v -76.531060 -50.164694 -3.402146
v -77.646197 -50.164694 41.247384
vt 0.375000 0.000000
vt 0.625000 0.000000
vt 0.375000 0.250000
vt 0.625000 0.250000
vt 0.375000 0.500000
vt 0.625000 0.500000
vt 0.375000 0.750000
vt 0.625000 0.750000
vt 0.375000 1.000000
vt 0.625000 1.000000
vt 0.875000 0.000000
vt 0.875000 0.250000
vt 0.125000 0.000000
vt 0.125000 0.250000
vt 0.375000 0.000000
vt 0.625000 0.000000
vt 0.375000 0.250000
vt 0.625000 0.250000
vt 0.375000 0.500000
vt 0.625000 0.500000
vt 0.375000 0.750000
vt 0.625000 0.750000
vt 0.375000 1.000000
vt 0.625000 1.000000
vt 0.875000 0.000000
vt 0.875000 0.250000
vt 0.125000 0.000000
vt 0.125000 0.250000
vt 0.375000 0.000000
vt 0.625000 0.000000
vt 0.375000 0.250000
vt 0.625000 0.250000
vt 0.375000 0.500000
vt 0.625000 0.500000
vt 0.375000 0.750000
vt 0.625000 0.750000
vt 0.375000 1.000000
vt 0.625000 1.000000
vt 0.875000 0.000000
vt 0.875000 0.250000
vt 0.125000 0.000000
vt 0.125000 0.250000
vn -0.999926 0.000000 -0.012176
vn -0.999926 0.000000 -0.012176
vn -0.999926 0.000000 -0.012176
vn -0.999926 0.000000 -0.012176
vn 0.000000 1.000000 0.000000
vn 0.000000 1.000000 0.000000
vn 0.000000 1.000000 0.000000
vn 0.000000 1.000000 0.000000
vn 0.999926 0.000000 0.012176
vn 0.999926 0.000000 0.012176
vn 0.999926 0.000000 0.012176
vn 0.999926 0.000000 0.012176
vn 0.000000 -1.000000 0.000000
vn 0.000000 -1.000000 0.000000
vn 0.000000 -1.000000 0.000000
vn 0.000000 -1.000000 0.000000
vn -0.012176 0.000000 0.999926
vn -0.012176 0.000000 0.999926
vn -0.012176 0.000000 0.999926
vn -0.012176 0.000000 0.999926
vn 0.012176 0.000000 -0.999926
vn 0.012176 0.000000 -0.999926
vn 0.012176 0.000000 -0.999926
vn 0.012176 0.000000 -0.999926
vn -0.999730 0.000000 -0.023219
vn -0.999730 0.000000 -0.023219
vn -0.999730 0.000000 -0.023219
vn -0.999730 0.000000 -0.023219
vn 0.000000 1.000000 0.000000
vn 0.000000 1.000000 0.000000
vn 0.000000 1.000000 0.000000
vn 0.000000 1.000000 0.000000
vn 0.999730 0.000000 0.023219
vn 0.999730 0.000000 0.023219
vn 0.999730 0.000000 0.023219
vn 0.999730 0.000000 0.023219
vn 0.000000 -1.000000 0.000000
vn 0.000000 -1.000000 0.000000
vn 0.000000 -1.000000 0.000000
vn 0.000000 -1.000000 0.000000
vn -0.006384 0.000000 0.999980
vn -0.006384 0.000000 0.999980
vn -0.006384 0.000000 0.999980
vn -0.006384 0.000000 0.999980
vn 0.006384 0.000000 -0.999980
vn 0.006384 0.000000 -0.999980
vn 0.006384 0.000000 -0.999980
vn 0.006384 0.000000 -0.999980
vn -0.999688 0.000000 -0.024968
vn -0.999688 0.000000 -0.024968
vn -0.999688 0.000000 -0.024968
vn -0.999688 0.000000 -0.024968
vn 0.000000 1.000000 0.000000
vn 0.000000 1.000000 0.000000
vn 0.000000 1.000000 0.000000
vn 0.000000 1.000000 0.000000
vn 0.999688 0.000000 0.024968
vn 0.999688 0.000000 0.024968
vn 0.999688 0.000000 0.024968
vn 0.999688 0.000000 0.024968
vn 0.000000 -1.000000 0.000000
vn 0.000000 -1.000000 0.000000
vn 0.000000 -1.000000 0.000000
vn 0.000000 -1.000000 0.000000
vn -0.024968 0.000000 0.999688
vn -0.024968 0.000000 0.999688
vn -0.024968 0.000000 0.999688
vn -0.024968 0.000000 0.999688
vn 0.024968 0.000000 -0.999688
vn 0.024968 0.000000 -0.999688
vn 0.024968 0.000000 -0.999688
vn 0.024968 0.000000 -0.999688
s off
g murillo1:pCube1 murillo1:polySurface1 group3
usemtl murillo1:lambert4SG
f 1/1/1 2/2/2 4/4/3 3/3/4
f 3/3/5 4/4/6 6/6/7 5/5/8
f 5/5/9 6/6/10 8/8/11 7/7/12
f 7/7/13 8/8/14 2/10/15 1/9/16
f 2/2/17 8/11/18 6/12/19 4/4/20
f 7/13/21 1/1/22 3/3/23 5/14/24
g murillo1:group2 murillo1:pasted__pCube1 murillo1:polySurface1 group3
f 9/15/25 10/16/26 12/18/27 11/17/28
f 11/17/29 12/18/30 14/20/31 13/19/32
f 13/19/33 14/20/34 16/22/35 15/21/36
f 15/21/37 16/22/38 10/24/39 9/23/40
f 10/16/41 16/25/42 14/26/43 12/18/44
f 15/27/45 9/15/46 11/17/47 13/28/48
g murillo1:group murillo1:pasted__pCube1 murillo1:polySurface1 group3
f 17/29/49 18/30/50 20/32/51 19/31/52
f 19/31/53 20/32/54 22/34/55 21/33/56
f 21/33/57 22/34/58 24/36/59 23/35/60
f 23/35/61 24/36/62 18/38/63 17/37/64
f 18/30/65 24/39/66 22/40/67 20/32/68
f 23/41/69 17/29/70 19/31/71 21/42/72
g murillo:default1
v -19.228075 -1.654146 -76.096376
v -19.957382 -1.654146 -25.506344
v -19.228075 43.029968 -76.096376
v -19.957382 43.029968 -25.506344
v -17.368809 43.029968 -76.077249
v -18.098116 43.029968 -25.487217
v -17.368809 -1.654146 -76.077249
v -18.098116 -1.654146 -25.487217
v -20.006569 38.059826 -25.613216
v -20.568016 38.059826 -3.080562
v -20.006569 43.071445 -25.613216
v -20.568016 43.071445 -3.080562
v -17.413677 43.071445 -25.122780
v -17.975126 43.071445 -3.541442
v -17.413677 38.059826 -25.122780
v -17.975126 38.059826 -3.541442
v -19.999660 -1.401332 -3.863020
v -21.114798 -1.401332 44.260058
v -19.999660 43.282784 -3.863020
v -21.114798 43.282784 44.260058
v -18.140837 43.282795 -3.812984
v -19.255974 43.282795 44.310095
v -18.140837 -1.401321 -3.812984
v -19.255974 -1.401321 44.310095
vt 0.375000 0.000000
vt 0.625000 0.000000
vt 0.375000 0.250000
vt 0.625000 0.250000
vt 0.375000 0.500000
vt 0.625000 0.500000
vt 0.375000 0.750000
vt 0.625000 0.750000
vt 0.375000 1.000000
vt 0.625000 1.000000
vt 0.875000 0.000000
vt 0.875000 0.250000
vt 0.125000 0.000000
vt 0.125000 0.250000
vt 0.375000 0.000000
vt 0.625000 0.000000
vt 0.375000 0.250000
vt 0.625000 0.250000
vt 0.375000 0.500000
vt 0.625000 0.500000
vt 0.375000 0.750000
vt 0.625000 0.750000
vt 0.375000 1.000000
vt 0.625000 1.000000
vt 0.875000 0.000000
vt 0.875000 0.250000
vt 0.125000 0.000000
vt 0.125000 0.250000
vt 0.375000 0.000000
vt 0.625000 0.000000
vt 0.375000 0.250000
vt 0.625000 0.250000
vt 0.375000 0.500000
vt 0.625000 0.500000
vt 0.375000 0.750000
vt 0.625000 0.750000
vt 0.375000 1.000000
vt 0.625000 1.000000
vt 0.875000 0.000000
vt 0.875000 0.250000
vt 0.125000 0.000000
vt 0.125000 0.250000
vn -0.999926 0.000000 -0.012176
vn -0.999926 0.000000 -0.012176
vn -0.999926 0.000000 -0.012176
vn -0.999926 0.000000 -0.012176
vn 0.000000 1.000000 0.000000
vn 0.000000 1.000000 0.000000
vn 0.000000 1.000000 0.000000
vn 0.000000 1.000000 0.000000
vn 0.999926 0.000000 0.012176
vn 0.999926 0.000000 0.012176
vn 0.999926 0.000000 0.012176
vn 0.999926 0.000000 0.012176
vn 0.000000 -1.000000 0.000000
vn 0.000000 -1.000000 0.000000
vn 0.000000 -1.000000 0.000000
vn 0.000000 -1.000000 0.000000
vn -0.012176 0.000000 0.999926
vn -0.012176 0.000000 0.999926
vn -0.012176 0.000000 0.999926
vn -0.012176 0.000000 0.999926
vn 0.012176 0.000000 -0.999926
vn 0.012176 0.000000 -0.999926
vn 0.012176 0.000000 -0.999926
vn 0.012176 0.000000 -0.999926
vn -0.999730 0.000000 -0.023219
vn -0.999730 0.000000 -0.023219
vn -0.999730 0.000000 -0.023219
vn -0.999730 0.000000 -0.023219
vn 0.000000 1.000000 0.000000
vn 0.000000 1.000000 0.000000
vn 0.000000 1.000000 0.000000
vn 0.000000 1.000000 0.000000
vn 0.999730 0.000000 0.023219
vn 0.999730 0.000000 0.023219
vn 0.999730 0.000000 0.023219
vn 0.999730 0.000000 0.023219
vn 0.000000 -1.000000 0.000000
vn 0.000000 -1.000000 0.000000
vn 0.000000 -1.000000 0.000000
vn 0.000000 -1.000000 0.000000
vn -0.006384 0.000000 0.999980
vn -0.006384 0.000000 0.999980
vn -0.006384 0.000000 0.999980
vn -0.006384 0.000000 0.999980
vn 0.006384 0.000000 -0.999980
vn 0.006384 0.000000 -0.999980
vn 0.006384 0.000000 -0.999980
vn 0.006384 0.000000 -0.999980
vn -0.999688 0.000000 -0.024968
vn -0.999688 0.000000 -0.024968
vn -0.999688 0.000000 -0.024968
vn -0.999688 0.000000 -0.024968
vn 0.000000 1.000000 0.000000
vn 0.000000 1.000000 0.000000
vn 0.000000 1.000000 0.000000
vn 0.000000 1.000000 0.000000
vn 0.999688 0.000000 0.024968
vn 0.999688 0.000000 0.024968
vn 0.999688 0.000000 0.024968
vn 0.999688 0.000000 0.024968
vn 0.000000 -1.000000 0.000000
vn 0.000000 -1.000000 0.000000
vn 0.000000 -1.000000 0.000000
vn 0.000000 -1.000000 0.000000
vn -0.024968 0.000000 0.999688
vn -0.024968 0.000000 0.999688
vn -0.024968 0.000000 0.999688
vn -0.024968 0.000000 0.999688
vn 0.024968 0.000000 -0.999688
vn 0.024968 0.000000 -0.999688
vn 0.024968 0.000000 -0.999688
vn 0.024968 0.000000 -0.999688
s off
g murillo:pCube1 murillo:polySurface1
usemtl murillo:lambert4SG
f 25/43/73 26/44/74 28/46/75 27/45/76
f 27/45/77 28/46/78 30/48/79 29/47/80
f 29/47/81 30/48/82 32/50/83 31/49/84
f 31/49/85 32/50/86 26/52/87 25/51/88
f 26/44/89 32/53/90 30/54/91 28/46/92
f 31/55/93 25/43/94 27/45/95 29/56/96
g murillo:group2 murillo:pasted__pCube1 murillo:polySurface1
f 33/57/97 34/58/98 36/60/99 35/59/100
f 35/59/101 36/60/102 38/62/103 37/61/104
f 37/61/105 38/62/106 40/64/107 39/63/108
f 39/63/109 40/64/110 34/66/111 33/65/112
f 34/58/113 40/67/114 38/68/115 36/60/116
f 39/69/117 33/57/118 35/59/119 37/70/120
g murillo:group murillo:pasted__pCube1 murillo:polySurface1
f 41/71/121 42/72/122 44/74/123 43/73/124
f 43/73/125 44/74/126 46/76/127 45/75/128
f 45/75/129 46/76/130 48/78/131 47/77/132
f 47/77/133 48/78/134 42/80/135 41/79/136
f 42/72/137 48/81/138 46/82/139 44/74/140
f 47/83/141 41/71/142 43/73/143 45/84/144
